<svg width="348" height="53" viewBox="0 0 348 53" fill="none" xmlns="http://www.w3.org/2000/svg">
<path d="M57.2129 28.6774C56.8758 13.2117 44.253 0.781525 28.7335 0.781525C12.9987 0.781525 0.241699 13.5556 0.241699 29.3152H11.6378C11.6378 41.9204 21.8416 52.1403 34.43 52.1403C46.8062 52.1403 56.8758 42.2643 57.2129 29.953C57.2191 29.7435 57.2222 29.5278 57.2222 29.3152C57.2222 29.1026 57.2191 28.8869 57.2129 28.6774ZM34.43 40.7293C28.1374 40.7293 23.0339 35.6178 23.0339 29.3152C23.0339 23.0126 28.1374 17.9011 34.43 17.9011C40.7227 17.9011 45.8261 23.0126 45.8261 29.3152C45.8261 35.6178 40.7227 40.7293 34.43 40.7293ZM219.39 11.4234C209.464 11.4234 201.389 19.4486 201.389 29.3121C201.389 39.3443 209.295 47.2007 219.39 47.2007C229.484 47.2007 237.391 39.3412 237.391 29.3121C237.391 19.4486 229.316 11.4234 219.39 11.4234ZM219.39 39.7007C214.08 39.7007 210.228 34.955 210.228 29.3152C210.228 23.6754 214.08 18.9265 219.39 18.9265C224.574 18.9265 228.482 23.7629 228.482 29.3152C228.482 34.9582 224.659 39.7007 219.39 39.7007ZM140.282 12.1894L140.238 16.166C140.238 16.166 139.829 15.6783 139.492 15.275C137.794 13.2367 134.542 11.4172 129.744 11.4172C120.901 11.4172 113.703 19.4424 113.703 29.3058C113.703 29.3089 113.703 29.3089 113.703 29.3121C113.703 29.3152 113.703 29.3152 113.703 29.3183C113.703 39.1818 120.898 47.207 129.744 47.207C134.542 47.207 137.794 45.3875 139.492 43.3491C139.829 42.9458 140.238 42.4581 140.238 42.4581L140.282 46.4348H149.009V29.3152V12.1894H140.282ZM140.8 29.3214C140.8 35.1801 137.213 39.7101 131.776 39.7101C126.342 39.7101 122.543 35.1801 122.543 29.3214C122.543 29.3183 122.543 29.3183 122.543 29.3152C122.543 29.3121 122.543 29.3121 122.543 29.3089C122.543 23.4503 126.339 18.9203 131.776 18.9203C137.213 18.9203 140.8 23.4503 140.8 29.3089C140.8 29.3121 140.8 29.3121 140.8 29.3152C140.8 29.3183 140.8 29.3183 140.8 29.3214ZM303.71 12.1894L303.667 16.166C303.667 16.166 303.258 15.6783 302.921 15.275C301.223 13.2367 297.97 11.4172 293.173 11.4172C284.33 11.4172 277.132 19.4424 277.132 29.3058C277.132 29.3089 277.132 29.3089 277.132 29.3121C277.132 29.3152 277.132 29.3152 277.132 29.3183C277.132 39.1818 284.327 47.207 293.173 47.207C297.97 47.207 301.223 45.3875 302.921 43.3491C303.258 42.9458 303.667 42.4581 303.667 42.4581L303.71 46.4348H312.438V29.3152V12.1894H303.71ZM304.232 29.3214C304.232 35.1801 300.645 39.7101 295.208 39.7101C289.773 39.7101 285.975 35.1801 285.975 29.3214C285.975 29.3183 285.975 29.3183 285.975 29.3152C285.975 29.3121 285.975 29.3121 285.975 29.3089C285.975 23.4503 289.77 18.9203 295.208 18.9203C300.645 18.9203 304.232 23.4503 304.232 29.3089C304.232 29.3121 304.232 29.3121 304.232 29.3152C304.232 29.3183 304.232 29.3183 304.232 29.3214ZM92.3158 18.9265C86.922 18.9265 83.1545 23.4159 83.1545 29.3152C83.1545 35.2145 86.922 39.7007 92.3158 39.7007C96.1207 39.7007 98.9674 37.4436 100.566 33.8608H109.415C107.255 42.2268 100.896 47.2007 92.3126 47.2007C82.0496 47.2007 74.3117 39.51 74.3117 29.3121C74.3117 19.1141 82.0496 11.4234 92.3126 11.4234C100.896 11.4234 107.252 16.3974 109.415 24.7633H100.566C98.9674 21.1868 96.1207 18.9265 92.3158 18.9265ZM176.012 27.23L187.764 12.1956H195.274V46.4316H186.506V25.3917L176.084 38.8285L165.593 25.4011V46.4316H156.825V12.1956H164.335L176.012 27.23ZM260.757 29.0495L277.294 46.4316H266.11L252.22 31.638V46.4316H243.452V12.1956H252.22V27.23L264.656 12.1956H274.987L260.757 29.0495ZM328.722 19.5643H318.403V12.1956H347.809V19.5643H337.49V46.4316H328.722V19.5643Z" fill="#FF005C"/>
</svg>
